<mxfile host="app.diagrams.net" modified="2021-04-15T08:34:56.823Z" agent="5.0 (Windows NT 10.0; Win64; x64) AppleWebKit/537.36 (KHTML, like Gecko) Chrome/88.0.4324.104 Safari/537.36" etag="Mzl3YfJylwZzjOR1CsOJ" version="14.6.0" type="github">
  <diagram name="Page-1" id="c7558073-3199-34d8-9f00-42111426c3f3">
    <mxGraphModel dx="1422" dy="794" grid="1" gridSize="10" guides="1" tooltips="1" connect="1" arrows="1" fold="1" page="1" pageScale="1" pageWidth="826" pageHeight="1169" background="#ffffff" math="0" shadow="0">
      <root>
        <mxCell id="0" />
        <mxCell id="1" parent="0" />
        <mxCell id="wKTwErh2A1nHFKfIIbDw-96" value="" style="shape=datastore;whiteSpace=wrap;html=1;shadow=1;sketch=1;fillColor=#003366;" vertex="1" parent="1">
          <mxGeometry x="353" y="360" width="137" height="200" as="geometry" />
        </mxCell>
        <mxCell id="wKTwErh2A1nHFKfIIbDw-102" style="edgeStyle=orthogonalEdgeStyle;rounded=0;orthogonalLoop=1;jettySize=auto;html=1;exitX=1;exitY=0.5;exitDx=0;exitDy=0;entryX=0;entryY=0.5;entryDx=0;entryDy=0;jumpStyle=none;sketch=1;" edge="1" parent="1" source="wKTwErh2A1nHFKfIIbDw-97" target="wKTwErh2A1nHFKfIIbDw-99">
          <mxGeometry relative="1" as="geometry" />
        </mxCell>
        <mxCell id="wKTwErh2A1nHFKfIIbDw-103" value="&lt;font style=&quot;font-size: 13px&quot;&gt;Alert Statistics&lt;br&gt;for&lt;br&gt;All truck sessions&lt;/font&gt;" style="edgeLabel;html=1;align=center;verticalAlign=middle;resizable=0;points=[];" vertex="1" connectable="0" parent="wKTwErh2A1nHFKfIIbDw-102">
          <mxGeometry x="-0.2284" y="-1" relative="1" as="geometry">
            <mxPoint x="-17" y="35" as="offset" />
          </mxGeometry>
        </mxCell>
        <mxCell id="wKTwErh2A1nHFKfIIbDw-105" style="edgeStyle=orthogonalEdgeStyle;rounded=0;orthogonalLoop=1;jettySize=auto;html=1;exitX=0.5;exitY=1;exitDx=0;exitDy=0;entryX=0;entryY=0.5;entryDx=0;entryDy=0;sketch=1;" edge="1" parent="1" source="wKTwErh2A1nHFKfIIbDw-97" target="wKTwErh2A1nHFKfIIbDw-100">
          <mxGeometry relative="1" as="geometry" />
        </mxCell>
        <mxCell id="wKTwErh2A1nHFKfIIbDw-108" value="&lt;span style=&quot;font-size: 13px&quot;&gt;Alert List&lt;br&gt;for&lt;br&gt;Selected truck session&lt;br&gt;&lt;/span&gt;" style="edgeLabel;html=1;align=center;verticalAlign=middle;resizable=0;points=[];" vertex="1" connectable="0" parent="wKTwErh2A1nHFKfIIbDw-105">
          <mxGeometry x="-0.0957" y="-4" relative="1" as="geometry">
            <mxPoint x="32" y="-4" as="offset" />
          </mxGeometry>
        </mxCell>
        <mxCell id="wKTwErh2A1nHFKfIIbDw-97" value="&lt;font style=&quot;font-size: 16px&quot;&gt;&lt;b&gt;API&lt;/b&gt;&lt;/font&gt;" style="rounded=1;whiteSpace=wrap;html=1;strokeWidth=2;fillWeight=4;hachureGap=8;hachureAngle=45;fillColor=#1ba1e2;sketch=1;shadow=1;" vertex="1" parent="1">
          <mxGeometry x="30" y="380" width="120" height="60" as="geometry" />
        </mxCell>
        <mxCell id="wKTwErh2A1nHFKfIIbDw-98" value="&lt;b&gt;Truck Session List&lt;/b&gt;" style="shape=ext;double=1;rounded=1;whiteSpace=wrap;html=1;shadow=1;sketch=1;fillColor=#FFFFFF;strokeColor=none;" vertex="1" parent="1">
          <mxGeometry x="365.5" y="415" width="112" height="30" as="geometry" />
        </mxCell>
        <mxCell id="wKTwErh2A1nHFKfIIbDw-99" value="&lt;b&gt;Alert Statistics&lt;/b&gt;" style="shape=ext;double=1;rounded=1;whiteSpace=wrap;html=1;shadow=1;sketch=1;fillColor=#FFFFFF;strokeColor=none;" vertex="1" parent="1">
          <mxGeometry x="365.5" y="460" width="112" height="30" as="geometry" />
        </mxCell>
        <mxCell id="wKTwErh2A1nHFKfIIbDw-100" value="&lt;b&gt;Specific Truck Session&amp;nbsp; Alerts&lt;/b&gt;" style="shape=ext;double=1;rounded=1;whiteSpace=wrap;html=1;shadow=1;sketch=1;fillColor=#FFFFFF;strokeColor=none;" vertex="1" parent="1">
          <mxGeometry x="365.5" y="510" width="112" height="30" as="geometry" />
        </mxCell>
        <mxCell id="wKTwErh2A1nHFKfIIbDw-111" style="edgeStyle=orthogonalEdgeStyle;rounded=0;sketch=1;jumpStyle=none;orthogonalLoop=1;jettySize=auto;html=1;exitX=0.5;exitY=1;exitDx=0;exitDy=0;entryX=1;entryY=0.5;entryDx=0;entryDy=0;" edge="1" parent="1" source="wKTwErh2A1nHFKfIIbDw-109" target="wKTwErh2A1nHFKfIIbDw-100">
          <mxGeometry relative="1" as="geometry" />
        </mxCell>
        <mxCell id="wKTwErh2A1nHFKfIIbDw-117" value="&lt;font style=&quot;font-size: 13px&quot;&gt;Single truck session&lt;/font&gt;" style="edgeLabel;html=1;align=center;verticalAlign=middle;resizable=0;points=[];" vertex="1" connectable="0" parent="wKTwErh2A1nHFKfIIbDw-111">
          <mxGeometry x="0.4555" y="-2" relative="1" as="geometry">
            <mxPoint as="offset" />
          </mxGeometry>
        </mxCell>
        <mxCell id="wKTwErh2A1nHFKfIIbDw-109" value="&lt;font size=&quot;1&quot;&gt;&lt;b style=&quot;font-size: 16px&quot;&gt;Web Socket&lt;/b&gt;&lt;/font&gt;" style="ellipse;whiteSpace=wrap;html=1;strokeWidth=2;fillWeight=2;hachureGap=8;fillStyle=dots;sketch=1;shadow=1;fillColor=#FFB570;" vertex="1" parent="1">
          <mxGeometry x="660" y="320" width="120" height="60" as="geometry" />
        </mxCell>
        <mxCell id="wKTwErh2A1nHFKfIIbDw-112" value="" style="edgeStyle=elbowEdgeStyle;elbow=vertical;endArrow=classic;html=1;exitX=0.5;exitY=1;exitDx=0;exitDy=0;entryX=1;entryY=0.5;entryDx=0;entryDy=0;sketch=1;" edge="1" parent="1" source="wKTwErh2A1nHFKfIIbDw-109" target="wKTwErh2A1nHFKfIIbDw-99">
          <mxGeometry width="50" height="50" relative="1" as="geometry">
            <mxPoint x="390" y="360" as="sourcePoint" />
            <mxPoint x="440" y="310" as="targetPoint" />
            <Array as="points">
              <mxPoint x="620" y="475" />
            </Array>
          </mxGeometry>
        </mxCell>
        <mxCell id="wKTwErh2A1nHFKfIIbDw-116" value="&lt;span style=&quot;font-size: 13px&quot;&gt;Alert Statistics&lt;/span&gt;&lt;br style=&quot;font-size: 13px&quot;&gt;&lt;span style=&quot;font-size: 13px&quot;&gt;for&lt;/span&gt;&lt;br style=&quot;font-size: 13px&quot;&gt;&lt;span style=&quot;font-size: 13px&quot;&gt;Single truck session&lt;br&gt;and total count&lt;br&gt;&lt;/span&gt;" style="edgeLabel;html=1;align=center;verticalAlign=middle;resizable=0;points=[];" vertex="1" connectable="0" parent="wKTwErh2A1nHFKfIIbDw-112">
          <mxGeometry x="0.2207" y="-3" relative="1" as="geometry">
            <mxPoint as="offset" />
          </mxGeometry>
        </mxCell>
        <mxCell id="wKTwErh2A1nHFKfIIbDw-114" value="&lt;font style=&quot;font-size: 18px&quot; face=&quot;Verdana&quot;&gt;Client State&lt;/font&gt;" style="text;strokeColor=none;fillColor=none;html=1;fontSize=24;fontStyle=1;verticalAlign=middle;align=center;shadow=1;sketch=1;" vertex="1" parent="1">
          <mxGeometry x="371.5" y="310" width="100" height="40" as="geometry" />
        </mxCell>
      </root>
    </mxGraphModel>
  </diagram>
</mxfile>
